<svg width="260" height="166" viewBox="0 0 260 166" fill="none" xmlns="http://www.w3.org/2000/svg">
<path d="M-168.376 404.469C-190.576 364.456 -187.276 312.071 -212.476 269.158C-237.676 226.341 -291.376 192.997 -301.076 156.366C-310.776 119.735 -296.276 63.4693 -258.576 32.4443C-220.976 1.41928 -160.176 -4.46155 -122.276 2.78729C-84.276 10.0361 -49.3759 46.6669 4.62407 48.8899C58.6241 51.2095 114.524 35.6487 154.924 48.7932C195.424 61.8411 250.124 101.55 258.424 159.54C266.724 217.531 228.024 270.689 196.924 300.168C165.924 329.646 112.624 337.587 61.9241 364.939C11.1241 392.291 -11.2759 425.617 -50.5759 438.568C-89.7759 451.616 -146.076 444.386 -168.376 404.469Z" fill="url(#paint0_linear_21_3)"/>
<defs>
<linearGradient id="paint0_linear_21_3" x1="-35.4357" y1="444.503" x2="259.564" y2="-267.997" gradientUnits="userSpaceOnUse">
<stop stop-color="#FE7D35"/>
<stop offset="1" stop-color="#F33759"/>
</linearGradient>
</defs>
</svg>
